<svg version="1.2" baseProfile="tiny-ps" xmlns="http://www.w3.org/2000/svg" viewBox="0 0 1294 140" width="1294" height="140">
	<title>wave-header-svg</title>
	<defs>
		<radialGradient id="grd1" gradientUnits="userSpaceOnUse"  cx="151832.952" cy="13766.619" r="192287.303">
			<stop offset="0" stop-color="#000000"  />
			<stop offset="1" stop-color="#ff0000"  />
		</radialGradient>
	</defs>
	<style>
		tspan { white-space:pre }
		.shp0 { opacity: 0.149;fill: #c4c4c4 } 
		.shp1 { fill: url(#grd1) } 
	</style>
	<g id="Ressource">
		<g id="wave_header">
			<g id="Group-4-Copy">
				<path id="Wave" fill-rule="evenodd" class="shp0" d="M-5 0L1295 0C1294.84 26.66 1294.84 69.7 1295 129.14C985.96 140 1029.97 114.45 696.5 123.93C363.04 133.41 385.61 144.32 -5 121.34C-4 88.13 -4 47.68 -5 0Z" />
				<path id="Wave" fill-rule="evenodd" class="shp1" d="M1297 0L372.3 0L-4 0C-4 60.12 -4 98.48 -4 115.07C76.39 111.87 150.19 107.2 339.72 111.87C529.25 116.54 596.18 135.24 871.68 117.52C1055.35 105.7 1197.12 106.57 1297 120.12L1297 0Z" />
			</g>
		</g>
	</g>
</svg>